<?xml version="1.0" encoding="utf-8"?>
<!-- Generator: Adobe Illustrator 24.3.0, SVG Export Plug-In . SVG Version: 6.00 Build 0)  -->
<svg version="1.1" id="Layer_1" xmlns="http://www.w3.org/2000/svg" xmlns:xlink="http://www.w3.org/1999/xlink" x="0px" y="0px"
	 viewBox="0 0 24 24" style="enable-background:new 0 0 24 24;" xml:space="preserve">
<path d="M22,11h-7V9h7V11z M23.7,21c-0.4,1.3-2,3-5.1,3c-3.1,0-5.6-1.7-5.6-5.7c0-3.9,2.3-5.9,5.5-5.9c3.1,0,5,1.8,5.4,4.4
	C24,17.3,24,18,24,18.9h-8c0.1,3.2,3.5,3.3,4.6,2C20.6,21,23.7,21,23.7,21z M16,17h5c-0.1-1.5-1.1-2.2-2.5-2.2
	C17.1,14.7,16.3,15.5,16,17z M6.5,23.9H0V9h7c5.5,0.1,5.6,5.4,2.7,6.9C13.1,17.1,13.2,23.9,6.5,23.9z M3,15h3.6c2.5,0,2.9-3-0.3-3H3
	C3,12,3,15,3,15z M6.4,18H3v3h3.3C9.4,21,9.2,18,6.4,18z"/>
</svg>
