<?xml version="1.0" encoding="utf-8"?>
<!-- Generator: Adobe Illustrator 24.3.0, SVG Export Plug-In . SVG Version: 6.00 Build 0)  -->
<svg version="1.1" id="Layer_1" xmlns="http://www.w3.org/2000/svg" xmlns:xlink="http://www.w3.org/1999/xlink" x="0px" y="0px"
	 viewBox="0 0 24 24" style="enable-background:new 0 0 24 24;" xml:space="preserve">
<path d="M12,7.6c2.4,0,2.7,0,3.6,0.1c2.4,0.1,3.6,1.3,3.7,3.7c0,0.9,0.1,1.2,0.1,3.6c0,2.4,0,2.7-0.1,3.6c-0.1,2.4-1.2,3.6-3.7,3.7
	c-0.9,0-1.2,0.1-3.6,0.1c-2.4,0-2.7,0-3.6-0.1c-2.4-0.1-3.6-1.3-3.7-3.7c0-0.9-0.1-1.2-0.1-3.6c0-2.4,0-2.7,0.1-3.6
	c0.1-2.4,1.2-3.6,3.7-3.7C9.3,7.6,9.6,7.6,12,7.6z M12,6C9.6,6,9.2,6,8.3,6.1C5,6.2,3.2,8,3.1,11.3C3,12.2,3,12.6,3,15
	s0,2.8,0.1,3.7c0.2,3.3,2,5.1,5.2,5.2c1,0,1.3,0.1,3.7,0.1s2.8,0,3.7-0.1c3.3-0.1,5.1-2,5.2-5.2c0-1,0.1-1.3,0.1-3.7s0-2.8-0.1-3.7
	c-0.1-3.3-2-5.1-5.2-5.2C14.8,6,14.4,6,12,6z M12,10.4c-2.6,0-4.6,2.1-4.6,4.6s2.1,4.6,4.6,4.6s4.6-2.1,4.6-4.6
	C16.6,12.4,14.6,10.4,12,10.4z M12,18c-1.7,0-3-1.3-3-3c0-1.7,1.3-3,3-3s3,1.3,3,3C15,16.7,13.7,18,12,18z M16.8,9.1
	c-0.6,0-1.1,0.5-1.1,1.1c0,0.6,0.5,1.1,1.1,1.1c0.6,0,1.1-0.5,1.1-1.1C17.9,9.6,17.4,9.1,16.8,9.1z"/>
</svg>
